<?xml version="1.0" encoding="UTF-8"?>
<svg id="Layer_2" xmlns="http://www.w3.org/2000/svg" xmlns:xlink="http://www.w3.org/1999/xlink" version="1.1" viewBox="0 0 90.9 17">
  <!-- Generator: Adobe Illustrator 29.4.0, SVG Export Plug-In . SVG Version: 2.1.0 Build 152)  -->
  <defs>
    <style>
      .st0 {
        fill: none;
      }

      .st1 {
        fill-rule: evenodd;
      }

      .st1, .st2 {
        fill: #e2e2e2;
      }

      .st3 {
        clip-path: url(#clippath);
      }
    </style>
    <clipPath id="clippath">
      <rect class="st0" width="17" height="17"/>
    </clipPath>
  </defs>
  <g id="Layer_1-2">
    <g class="st3">
      <path class="st1" d="M3.4,13.9l.2.2h0c.6.6.6,1.6,0,2.2s-1.6.6-2.2,0h0s-.2-.2-.2-.2l-.5-.5c-.6-.6-.6-1.6,0-2.2s1.6-.6,2.2,0l.5.5h0ZM14,5.2l2.3-2.3c.6-.6.6-1.6,0-2.2-.6-.6-1.6-.6-2.2,0l-2,2-.2.2-.2.2-1.1,1.1c-.6.6-.6,1.6,0,2.2l1.1,1.1.2.2,2.2,2.2c.6.6,1.6.6,2.2,0,.6-.6.6-1.6,0-2.2l-2.2-2.2s-.2-.2-.2-.2ZM.7.6h0C1.3,0,2.3,0,3,.6l13.4,13.4c.6.6.6,1.6,0,2.2-.6.6-1.6.6-2.2,0L.7,2.9C0,2.3,0,1.3.7.6ZM.7,7c.6-.6,1.6-.6,2.2,0l7,7c.6.6.6,1.6,0,2.2-.6.6-1.6.6-2.2,0l-2.2-2.2L.7,9.3c-.6-.6-.6-1.6,0-2.2Z"/>
    </g>
    <path class="st2" d="M25,13.1V3.2h3.6c.8,0,1.4.1,2,.4.5.3.9.6,1.1,1.1.2.4.4.9.4,1.5s-.2,1.2-.5,1.7c-.3.5-.8.9-1.5,1.1l2,4.1h-2.1l-1.8-3.9h-1.5v3.9h-1.8ZM26.8,7.9h1.7c.6,0,1-.2,1.3-.4.3-.3.4-.7.4-1.2s-.1-.8-.4-1.1c-.3-.3-.7-.4-1.3-.4h-1.7v3.1h0Z"/>
    <path class="st2" d="M35.3,13.1l3.6-9.8h2l3.6,9.8h-1.9l-.8-2.3h-3.8l-.8,2.3h-1.9,0ZM38.5,9.4h2.8l-1.4-4.1-1.4,4.1Z"/>
    <path class="st2" d="M50.5,13.1v-3.5l-3.3-6.3h2l2.2,4.5,2.2-4.5h2l-3.3,6.3v3.5h-1.8Z"/>
    <path class="st2" d="M59,13.1V3.2h1.2l5.2,7.9V3.2h1.2v9.8h-1.2l-5.2-7.9v7.9h-1.2Z"/>
    <path class="st2" d="M75.3,13.2c-1,0-1.8-.2-2.5-.6-.7-.4-1.3-1-1.7-1.8-.4-.8-.6-1.7-.6-2.7s.2-1.9.6-2.7c.4-.8,1-1.4,1.7-1.8.7-.4,1.6-.7,2.5-.7s1.8.2,2.6.7c.7.4,1.3,1,1.7,1.8.4.8.6,1.7.6,2.7s-.2,1.9-.6,2.7c-.4.8-1,1.4-1.7,1.8-.7.4-1.6.6-2.6.6ZM75.3,12.2c.7,0,1.3-.2,1.9-.5s1-.8,1.3-1.4c.3-.6.5-1.3.5-2.2s-.2-1.6-.5-2.2c-.3-.6-.7-1.1-1.3-1.4-.6-.3-1.2-.5-1.9-.5s-1.4.2-1.9.5c-.6.3-1,.8-1.3,1.4-.3.6-.5,1.3-.5,2.2s.2,1.6.5,2.2c.3.6.7,1.1,1.3,1.4.6.3,1.2.5,1.9.5Z"/>
    <path class="st2" d="M83.5,13.1l3-5-3-4.9h1.3l2.4,3.9,2.3-3.9h1.3l-3,4.9,3,4.9h-1.3l-2.4-3.9-2.3,3.9h-1.3,0Z"/>
  </g>
</svg>