<?xml version="1.0" encoding="UTF-8"?>
<svg xmlns:xlink="http://www.w3.org/1999/xlink" data-name="Layer 2" id="Layer_2"
  viewBox="0 0 90.93 16.96" xmlns="http://www.w3.org/2000/svg">
  <defs>
    <clipPath id="clippath">
      <rect class="cls-1" height="16.96" width="16.96"/>
    </clipPath>
    <style>
      .cls-1 {
      fill: none;
      }

      .cls-2 {
      fill-rule: evenodd;
      }

      .cls-3 {
      clip-path: url(#clippath);
      }
    </style>
  </defs>
  <g data-name="Layer 1" id="Layer_1-2">
    <g class="cls-3">
      <path class="cls-2"
        d="M3.38,13.91l.19.19.02.02c.6.62.59,1.61-.02,2.22s-1.61.62-2.23.02l-.02-.02-.19-.19-.52-.52C0,15.01,0,14,.62,13.38c.62-.62,1.63-.62,2.24,0l.52.52ZM13.96,5.23l2.35-2.35c.62-.62.62-1.63,0-2.24C15.7.02,14.69.02,14.08.63l-1.96,1.96-.21.21-.19.19-1.12,1.12c-.62.62-.62,1.62,0,2.24l1.12,1.12.2.2,2.17,2.17c.62.62,1.63.62,2.24,0,.62-.62.62-1.63,0-2.24l-2.17-2.17-.2-.2ZM.71.65h0c.62-.62,1.63-.62,2.24,0l13.35,13.35c.62.62.62,1.63,0,2.24-.61.62-1.62.62-2.24,0L.71,2.89C.09,2.27.09,1.26.71.65ZM.69,7.04c.62-.62,1.63-.62,2.24,0l6.98,6.98c.62.62.62,1.63,0,2.24-.62.62-1.63.62-2.24,0l-2.17-2.17L.69,9.28c-.62-.62-.62-1.63,0-2.24Z"/>
    </g>
    <path
      d="M25,13.08V3.25h3.61c.78,0,1.43.14,1.95.4.51.27.89.63,1.14,1.09.25.45.38.95.38,1.5,0,.6-.16,1.15-.47,1.65-.32.5-.8.86-1.47,1.08l2.04,4.11h-2.06l-1.83-3.88h-1.49v3.88h-1.79ZM26.79,7.89h1.7c.6,0,1.04-.15,1.32-.44.28-.29.42-.68.42-1.16s-.14-.84-.42-1.12c-.27-.28-.72-.42-1.34-.42h-1.69v3.14Z"/>
    <path
      d="M35.3,13.08l3.59-9.84h2.02l3.59,9.84h-1.91l-.78-2.28h-3.84l-.8,2.28h-1.88ZM38.47,9.41h2.85l-1.43-4.09-1.42,4.09Z"/>
    <path d="M50.5,13.08v-3.5l-3.3-6.34h2.04l2.18,4.54,2.16-4.54h2.01l-3.28,6.34v3.5h-1.8Z"/>
    <path d="M59,13.08V3.25h1.18l5.24,7.88V3.25h1.18v9.84h-1.18l-5.24-7.88v7.88h-1.18Z"/>
    <path
      d="M75.32,13.25c-.97,0-1.81-.21-2.54-.64-.73-.42-1.29-1.02-1.7-1.79-.41-.77-.61-1.66-.61-2.66s.2-1.88.61-2.65c.41-.76.98-1.36,1.7-1.79.72-.43,1.57-.65,2.54-.65s1.82.22,2.55.65c.72.43,1.29,1.03,1.69,1.79.41.76.61,1.65.61,2.65s-.2,1.89-.61,2.66c-.4.77-.97,1.36-1.69,1.79-.73.43-1.58.64-2.55.64ZM75.32,12.21c.72,0,1.35-.16,1.9-.48.55-.32.98-.78,1.28-1.39.3-.6.46-1.33.46-2.17s-.15-1.56-.46-2.16c-.3-.6-.73-1.06-1.28-1.39-.55-.32-1.18-.48-1.9-.48s-1.36.16-1.9.48c-.55.32-.97.79-1.27,1.39-.3.6-.46,1.32-.46,2.16s.15,1.57.46,2.17c.3.6.73,1.06,1.27,1.39.55.32,1.18.48,1.9.48Z"/>
    <path
      d="M83.54,13.08l3.01-4.96-3.01-4.88h1.34l2.42,3.93,2.3-3.93h1.32l-3.01,4.93,3.02,4.9h-1.34l-2.43-3.95-2.29,3.95h-1.34Z"/>
  </g>
</svg>