<?xml version="1.0" encoding="UTF-8"?>
<svg id="Layer_1" data-name="Layer 1" xmlns="http://www.w3.org/2000/svg" viewBox="0 0 200 190">
  <path d="M55,190c-5.52,0-10-3.87-10-8.64V8.64c0-4.77,4.48-8.64,10-8.64s10,3.87,10,8.64v172.73c0,4.77-4.48,8.64-10,8.64Z"/>
  <path d="M145,190c-5.52,0-10-3.87-10-8.64V8.64c0-4.77,4.48-8.64,10-8.64s10,3.87,10,8.64v172.73c0,4.77-4.48,8.64-10,8.64Z"/>
  <path d="M10,142.5c-5.52,0-10-4.48-10-10V57.5c0-5.52,4.48-10,10-10s10,4.48,10,10v75c0,5.52-4.48,10-10,10Z"/>
  <path d="M100,142.5c-5.52,0-10-4.48-10-10V57.5c0-5.52,4.48-10,10-10s10,4.48,10,10v75c0,5.52-4.48,10-10,10Z"/>
  <path d="M190,142.5c-5.52,0-10-4.48-10-10V57.5c0-5.52,4.48-10,10-10s10,4.48,10,10v75c0,5.52-4.48,10-10,10Z"/>
</svg>