<?xml version="1.0" encoding="UTF-8"?>
<svg id="Layer_1" data-name="Layer 1" xmlns="http://www.w3.org/2000/svg" xmlns:xlink="http://www.w3.org/1999/xlink" viewBox="0 0 101.88 93.5">
  <defs>
    <style>
      .cls-1 {
        fill: none;
      }

      .cls-2 {
        fill-rule: evenodd;
      }

      .cls-3 {
        clip-path: url(#clippath);
      }
    </style>
    <clipPath id="clippath">
      <rect class="cls-1" width="101.88" height="93.5"/>
    </clipPath>
  </defs>
  <g class="cls-3">
    <path class="cls-2" d="M20.33,76.68l1.15,1.05.11.11c3.58,3.41,3.55,8.9-.11,12.26-3.67,3.37-9.66,3.4-13.37.11l-.11-.11-1.15-1.04-3.13-2.89C.01,82.77.01,77.21,3.71,73.8c3.7-3.4,9.77-3.4,13.47,0l3.14,2.88ZM83.9,28.84l14.14-12.98c3.7-3.4,3.7-8.97,0-12.38-3.71-3.4-9.77-3.4-13.47,0l-11.75,10.78-1.29,1.17-1.11,1.03-6.73,6.18c-3.7,3.4-3.7,8.96,0,12.38l6.73,6.18,1.21,1.1,13.03,11.95c3.7,3.4,9.77,3.4,13.48,0,3.7-3.4,3.7-8.97,0-12.37l-13.04-11.96-1.2-1.09ZM4.25,3.57h0c3.7-3.41,9.78-3.41,13.48,0l80.22,73.63c3.72,3.4,3.72,8.98,0,12.38-3.69,3.4-9.76,3.4-13.47,0L4.25,15.93C.55,12.53.55,6.97,4.25,3.57ZM4.13,38.82c3.7-3.4,9.77-3.4,13.48,0l41.93,38.48c3.7,3.4,3.7,8.98,0,12.38-3.71,3.4-9.78,3.4-13.47,0l-13.04-11.95L4.13,51.19c-3.7-3.4-3.7-8.98,0-12.38Z"/>
  </g>
</svg>