<?xml version="1.0" encoding="UTF-8"?>
<svg id="Layer_1" data-name="Layer 1" xmlns="http://www.w3.org/2000/svg" viewBox="0 0 242.6 115.85">
  <path d="M59.04,5.1c-.24-.96.12-1.44,1.32-1.44,9.96.48,22.68-3,29.4-3,5.16,0,8.28,2.4,9.84,6.12.36.96.12,1.8-1.44,1.8-9-.12-17.4,2.28-24.72,3.36-4.2,6.84-9.84,16.56-15.72,27.36,3.12-.6,5.88-.84,8.04-.96,6-.36,9,2.16,10.08,5.76.36,1.08.12,1.8-1.32,1.8-6-.12-15.24,1.68-22.08,3.36-4.56,8.88-9,17.88-12.48,25.92-.48,1.2-1.2,1.2-2.04.48-2.28-1.92-3.48-5.76-.96-13.2,3.6-10.56,16.2-34.08,26.76-51.24-2.76-1.32-4.08-3.72-4.68-6.12Z"/>
  <path d="M94.44,72.78c9.96.48,18.72-9.12,23.88-17.04.6-.96,1.56-.96,2.04.12.48.96.12,4.32-2.04,7.44-5.04,7.32-14.28,12.84-23.52,12.96-15.24.24-20.52-14.76-12.72-30.24,7.8-15.48,20.04-21.72,26.04-18.24,3,1.8,5.16,3.6,7.08,6.24,2.16,2.88,1.2,10.2-3.84,16.32-5.88,7.2-13.92,10.32-22.32,3.48-3.84,11.04-.96,18.6,5.4,18.96ZM104.4,45.18c3.84-5.04,6.48-11.28,4.8-12.6-2.52-2.04-12.48,5.16-18.12,16.56-.36.72-.72,1.44-.96,2.04,5.88,3.72,10.8-1.44,14.28-6Z"/>
  <path d="M127.44,72.54c5.76.48,14.16-8.16,18.84-17.4.84-1.56,2.16-1.68,2.64,0,.6,1.92.12,4.56-1.2,7.44-1.68,3.6-10.44,13.56-20.04,13.32-8.28-.24-12.72-6-9.96-18.96,4.44-20.88,18.12-42.6,30.36-55.32,1.8-1.92,3.48-2.16,5.16-.6,3.48,3.12,4.2,7.56,2.76,13.2-3.72,14.76-17.16,29.16-27.84,36.12-4.8,11.76-6.12,21.72-.72,22.2ZM151.92,11.7c-1.56-.96-10.44,12.36-18.72,27.72-1.08,1.92-2.04,3.84-2.88,5.76,16.44-13.32,23.16-32.52,21.6-33.48Z"/>
  <path d="M202.44,28.38c1.08-1.44,2.52-1.44,2.4.48-.12,3-1.92,6.12-4.44,9.6-2.76,3.72-8.52,10.2-15.24,16.8.24,4.08.48,7.8.84,10.56.6,4.8,1.92,6.24,3.6,6.36,4.2.24,10.44-8.76,13.8-15.96.48-1.08,1.56-.96,1.92.12.48,1.68.6,4.56-1.44,8.04-4.44,7.68-10.68,11.88-16.8,11.88s-9.48-3.72-10.08-13.56c-8.64,7.44-18,13.56-24.6,13.56-9.12,0-11.4-7.68-8.28-17.52,3-9.48,12.96-25.8,15.48-29.28,1.08-1.44,1.92-1.92,2.88-.72,1.92,1.92,2.76,7.2.12,13.2-2.4,5.4-8.16,13.8-10.68,19.8-2.88,6.72-2.4,11.16,1.56,10.92,4.92-.24,13.92-6.96,23.16-15.48-.6-9-1.56-21.72-2.76-27.72-.36-1.68.84-2.04,2.4-1.8,3.84.72,6.72,3.96,7.56,11.88.36,3,.6,6.24.84,9.72,7.08-7.2,13.44-14.88,17.76-20.88ZM171.12,27.18c-1.68,1.8-4.92,1.44-6.72-1.8s-1.56-6.72.6-8.76c2.04-1.92,5.52-.6,6.84,2.64,1.32,3.12.6,6.48-.72,7.92Z"/>
  <path d="M1,112.93c39.93-13.96,82.16-21.31,124.46-21.46,40.33.11,89.65,3.13,117.14-32.18-27.14,35.73-76.7,33.32-117.13,33.68-42.03.64-83.96,8.44-123.45,22.78-.78.28-1.64-.12-1.92-.9-.29-.78.13-1.65.91-1.93h0Z"/>
</svg>